<?xml version="1.0" encoding="UTF-8" standalone="no"?>
<!-- Created with Inkscape (http://www.inkscape.org/) -->

<svg
   xmlns:dc="http://purl.org/dc/elements/1.1/"
   xmlns:cc="http://creativecommons.org/ns#"
   xmlns:rdf="http://www.w3.org/1999/02/22-rdf-syntax-ns#"
   xmlns:svg="http://www.w3.org/2000/svg"
   xmlns="http://www.w3.org/2000/svg"
   xmlns:xlink="http://www.w3.org/1999/xlink"
   xmlns:sodipodi="http://sodipodi.sourceforge.net/DTD/sodipodi-0.dtd"
   xmlns:inkscape="http://www.inkscape.org/namespaces/inkscape"
   inkscape:export-ydpi="90"
   inkscape:export-xdpi="90"
   inkscape:export-filename="/home/rob/sr/dev/squidge/splash.png"
   sodipodi:docname="background.svg"
   inkscape:version="0.48.5 r10040"
   version="1.1"
   id="svg2"
   height="272"
   width="480">
  <defs
     id="defs4">
    <inkscape:perspective
       sodipodi:type="inkscape:persp3d"
       inkscape:vp_x="-572.55639 : 329.8258 : 0"
       inkscape:vp_y="0 : 1973.2851 : 0"
       inkscape:vp_z="573.80556 : 330.54538 : 0"
       inkscape:persp3d-origin="366.44487 : -122.79526 : 1"
       id="perspective3214" />
    <inkscape:perspective
       sodipodi:type="inkscape:persp3d"
       inkscape:vp_x="-305.38149 : 176.31208 : 0"
       inkscape:vp_y="6.1230318e-14 : 1000 : 0"
       inkscape:vp_z="306.54097 : 176.98151 : 0"
       inkscape:persp3d-origin="265 : 2.4726486 : 1"
       id="perspective3155" />
    <pattern
       inkscape:collect="always"
       xlink:href="#Strips1_1white"
       id="pattern5898"
       patternTransform="matrix(13.401193,10.766474,-6.8023854,8.4670316,185,1037.3622)" />
    <pattern
       inkscape:stockid="Stripes 1:1 white"
       id="Strips1_1white"
       patternTransform="translate(0,0) scale(10,10)"
       height="1"
       width="2"
       patternUnits="userSpaceOnUse"
       inkscape:collect="always">
      <rect
         id="rect5152"
         height="2"
         width="1"
         y="-0.5"
         x="0"
         style="fill:white;stroke:none" />
    </pattern>
    <pattern
       inkscape:collect="always"
       xlink:href="#Strips1_1"
       id="pattern5878"
       patternTransform="matrix(70.814465,241.40867,-66.628929,19.544832,0,0)" />
    <pattern
       inkscape:stockid="Stripes 1:1"
       id="Strips1_1"
       patternTransform="translate(0,0) scale(10,10)"
       height="1"
       width="2"
       patternUnits="userSpaceOnUse"
       inkscape:collect="always">
      <rect
         id="rect5149"
         height="2"
         width="1"
         y="-0.5"
         x="0"
         style="fill:black;stroke:none" />
    </pattern>
    <filter
       id="filter3791"
       inkscape:label="Glow"
       inkscape:menu="Shadows and Glows"
       inkscape:menu-tooltip="Glow of object's own color at the edges"
       color-interpolation-filters="sRGB"
       y="-0.5"
       height="2"
       x="-2"
       width="5">
      <feGaussianBlur
         id="feGaussianBlur3793"
         stdDeviation="5"
         result="result91" />
      <feComposite
         id="feComposite3795"
         in2="result91"
         in="SourceGraphic"
         operator="over" />
    </filter>
    <filter
       id="filter3791-0"
       inkscape:label="Glow"
       inkscape:menu="Shadows and Glows"
       inkscape:menu-tooltip="Glow of object's own color at the edges"
       color-interpolation-filters="sRGB"
       y="-0.5"
       height="2"
       x="-2"
       width="5">
      <feGaussianBlur
         id="feGaussianBlur3793-5"
         stdDeviation="5"
         result="result91" />
      <feComposite
         id="feComposite3795-9"
         in2="result91"
         in="SourceGraphic"
         operator="over" />
    </filter>
    <inkscape:perspective
       sodipodi:type="inkscape:persp3d"
       inkscape:vp_x="-544.35661 : 298.22925 : 0"
       inkscape:vp_y="0 : 1784.2489 : 0"
       inkscape:vp_z="545.54426 : 298.8799 : 0"
       inkscape:persp3d-origin="433.70387 : -130.95843 : 1"
       id="perspective3214-4" />
    <inkscape:perspective
       sodipodi:type="inkscape:persp3d"
       inkscape:vp_x="-453.45794 : 261.80407 : 0"
       inkscape:vp_y="0 : 1566.324 : 0"
       inkscape:vp_z="454.44727 : 262.37525 : 0"
       inkscape:persp3d-origin="298.85373 : -177.74959 : 1"
       id="perspective3214-4-2" />
    <inkscape:perspective
       sodipodi:type="inkscape:persp3d"
       inkscape:vp_x="539.47297 : -306.97511 : 0"
       inkscape:vp_y="-28.793774 : -1784.0166 : 0"
       inkscape:vp_z="-550.29856 : -290.03315 : 0"
       inkscape:persp3d-origin="25.084581 : 269.2636 : 1"
       id="perspective3214-4-1" />
    <filter
       inkscape:collect="always"
       id="filter4097"
       x="-0.35896034"
       width="1.7179207"
       y="-0.27423793"
       height="1.5484759">
      <feGaussianBlur
         inkscape:collect="always"
         stdDeviation="6.0636463"
         id="feGaussianBlur4099" />
    </filter>
    <clipPath
       clipPathUnits="userSpaceOnUse"
       id="clipPath4215">
      <path
         sodipodi:nodetypes="ccccc"
         style="fill:#000000;fill-opacity:1;stroke:none"
         d="m 199.45861,121.40945 30.68594,17.71653 0,35.43308 L 199.45861,157 z"
         id="path4217"
         inkscape:connector-curvature="0" />
    </clipPath>
    <filter
       inkscape:collect="always"
       id="filter4267">
      <feGaussianBlur
         inkscape:collect="always"
         stdDeviation="2.0853874"
         id="feGaussianBlur4269" />
    </filter>
    <filter
       inkscape:collect="always"
       id="filter4299"
       x="-0.11772118"
       width="1.2354424"
       y="-0.097871556"
       height="1.1957431">
      <feGaussianBlur
         inkscape:collect="always"
         stdDeviation="1.8061927"
         id="feGaussianBlur4301" />
    </filter>
    <filter
       inkscape:collect="always"
       id="filter4307">
      <feGaussianBlur
         inkscape:collect="always"
         stdDeviation="1.8005694"
         id="feGaussianBlur4309" />
    </filter>
  </defs>
  <sodipodi:namedview
     id="base"
     pagecolor="#000000"
     bordercolor="#666666"
     borderopacity="1.0"
     inkscape:pageopacity="1"
     inkscape:pageshadow="2"
     inkscape:zoom="1.4000714"
     inkscape:cx="285.51205"
     inkscape:cy="147.00745"
     inkscape:document-units="px"
     inkscape:current-layer="layer4"
     showgrid="true"
     inkscape:window-width="1366"
     inkscape:window-height="721"
     inkscape:window-x="-2"
     inkscape:window-y="-3"
     inkscape:window-maximized="1"
     showguides="true"
     inkscape:guide-bbox="true">
    <sodipodi:guide
       orientation="0,1"
       position="255.06352,375.27167"
       id="guide4259" />
    <sodipodi:guide
       orientation="1,0"
       position="480.71428,177.14286"
       id="guide4084" />
    <sodipodi:guide
       orientation="1,0"
       position="-21.339472,178.41819"
       id="guide3022" />
    <sodipodi:guide
       orientation="1,0"
       position="634.28571,210"
       id="guide4089" />
    <inkscape:grid
       type="xygrid"
       id="grid3884"
       empspacing="5"
       visible="false"
       enabled="true"
       snapvisiblegridlinesonly="true"
       spacingx="5px"
       spacingy="5px" />
    <inkscape:grid
       type="axonomgrid"
       id="grid5681"
       units="mm"
       empspacing="5"
       visible="true"
       enabled="true"
       snapvisiblegridlinesonly="true" />
  </sodipodi:namedview>
  <metadata
     id="metadata7">
    <rdf:RDF>
      <cc:Work
         rdf:about="">
        <dc:format>image/svg+xml</dc:format>
        <dc:type
           rdf:resource="http://purl.org/dc/dcmitype/StillImage" />
        <dc:title />
      </cc:Work>
    </rdf:RDF>
  </metadata>
  <g
     inkscape:groupmode="layer"
     id="layer2"
     inkscape:label="Cube"
     style="display:inline">
    <path
       style="fill:#808080;fill-opacity:1;stroke:none"
       d="m 107.40079,42 c 0,59.44792 0,108.54421 0,167.99213 52.48909,30.27416 100.96446,58.26706 153.4297,88.58267 0,-60.59375 0,-116.5716 0,-177.16535 -52.48936,-30.284119 -100.9639,-58.257628 -153.4297,-88.582678 0,1.15625 0,8.016978 0,9.173228 z"
       id="path5715"
       inkscape:connector-curvature="0"
       sodipodi:nodetypes="sccccs" />
    <path
       style="fill:#cccccc;stroke:none"
       d="m 260.83049,121.40945 153.42969,-88.582678 0,177.165358 -153.42969,88.58267 z"
       id="path5717"
       inkscape:connector-curvature="0"
       sodipodi:nodetypes="ccccc" />
    <path
       style="fill:#666666;stroke:none"
       d="M 107.40079,32.826772 260.83049,-55.755906 414.26018,32.826772 260.83049,121.40945 z"
       id="path5719"
       inkscape:connector-curvature="0"
       sodipodi:nodetypes="ccccc" />
    <path
       style="fill:#4d4d4d;stroke:none"
       d="M 199.45861,227.70866 230,245.50865 l 0.14455,-35.51652 z"
       id="path5729"
       inkscape:connector-curvature="0"
       sodipodi:nodetypes="cccc" />
    <path
       style="fill:#b3b3b3;stroke:none"
       d="m 230.14455,209.99213 -30.68594,-17.71654 0,35.43307 z"
       id="path5731"
       inkscape:connector-curvature="0"
       sodipodi:nodetypes="cccc" />
    <path
       style="fill:#b3b3b3;stroke:none"
       d="m 199.45861,121.40945 3.06859,1.77165 0,31.88977 -3.06859,1.77165 z"
       id="path5745"
       inkscape:connector-curvature="0" />
    <path
       style="fill:#4d4d4d;stroke:none"
       d="m 230.14455,174.55906 0,-3.54331 -27.61735,-15.94488 -3.06859,1.77165 z"
       id="path5747"
       inkscape:connector-curvature="0"
       clip-path="none" />
    <rect
       style="fill:#000000;fill-opacity:1;stroke:none;display:inline"
       id="rect5754"
       width="47.43914"
       height="30"
       x="402.56085"
       y="27" />
    <path
       style="opacity:0.52263375;fill:#000000;fill-opacity:1;stroke:none;filter:url(#filter4097)"
       d="M 199.45861,192.27559 240,202 230,245.34174 214.80158,218.85039 z"
       id="path4068"
       inkscape:connector-curvature="0"
       sodipodi:nodetypes="ccccc" />
  </g>
  <g
     inkscape:groupmode="layer"
     id="layer5"
     inkscape:label="box shadows"
     style="display:inline">
    <path
       style="fill:#808080;stroke:none;display:inline"
       d="m 184.11564,183.41732 46.02891,26.57481 0,35.43307 30.68594,-17.71654 L 260,175.03854 z"
       id="path4078"
       inkscape:connector-curvature="0"
       sodipodi:nodetypes="cccccc" />
    <path
       style="opacity:0.24279833;fill:#131313;fill-opacity:1;stroke:none;filter:url(#filter4267)"
       d="M 168.77267,103.69291 116.60657,133.81102 107.40079,102 l 0,-23.110236 21.48016,-12.401575 33.75453,19.488189 z"
       id="path4221"
       inkscape:connector-curvature="0"
       sodipodi:nodetypes="ccccccc" />
    <path
       style="opacity:0.23999999;fill:#131313;fill-opacity:1;stroke:none;display:inline;filter:url(#filter4307)"
       d="m 168.80254,173.42297 -48.08792,28.31111 -9.61759,-20.99977 0,-21.934 22.42209,-12.80564 28.8717,16.4613 z"
       id="path4221-7"
       inkscape:connector-curvature="0"
       sodipodi:nodetypes="ccccccc"
       transform="matrix(0.95718228,0,0,0.96926425,7.1978672,6.4663664)" />
  </g>
  <g
     inkscape:groupmode="layer"
     id="layer3"
     inkscape:label="Boxes"
     style="display:inline">
    <path
       style="fill:#ff0000;stroke:none;display:inline"
       d="m 168.77267,103.69291 -21.48016,12.40158 0,35.43307 21.48016,-12.40158 z"
       id="path5723"
       inkscape:connector-curvature="0"
       sodipodi:nodetypes="ccccc" />
    <path
       style="fill:#d40000;stroke:none;display:inline"
       d="m 116.80942,98.496262 0,35.433078 30.68594,17.71653 0,-35.43307 z"
       id="path5725"
       inkscape:connector-curvature="0" />
    <path
       style="fill:#10cc00;stroke:none;display:inline"
       d="m 230.14455,139.12598 -27.61735,-15.94488 0,31.88977 27.61735,15.94488 z"
       id="path5727"
       inkscape:connector-curvature="0"
       sodipodi:nodetypes="ccccc" />
    <path
       style="fill:#0000b8;stroke:none;display:inline"
       d="m 168.77267,174.55906 -15.34297,8.85826 0,35.43307 15.34297,-8.85826 z"
       id="path5733"
       inkscape:connector-curvature="0"
       sodipodi:nodetypes="ccccc" />
    <path
       style="fill:#000060;stroke:none;display:inline"
       d="m 168.77267,174.55906 -30.68594,-17.71654 -15.34297,8.85827 30.68594,17.71653 z"
       id="path5735"
       inkscape:connector-curvature="0" />
    <path
       style="fill:#0000a4;stroke:none;display:inline"
       d="m 153.4297,183.41732 -30.68594,-17.71653 0,35.43307 30.68594,17.71653 z"
       id="path5737"
       inkscape:connector-curvature="0"
       sodipodi:nodetypes="ccccc" />
    <path
       style="fill:#dcb42c;stroke:none;display:inline"
       d="m 15.34297,227.70866 30.685939,17.71654 0,-35.43307 -30.685939,-17.71654 z"
       id="path5739"
       inkscape:connector-curvature="0" />
    <path
       style="fill:#e8d050;stroke:none;display:inline"
       d="m 46.028909,209.99213 30.68594,-17.71654 0,35.43307 -30.68594,17.71654 z"
       id="path5741"
       inkscape:connector-curvature="0" />
    <path
       style="fill:#d0980c;stroke:none;display:inline"
       d="m 15.34297,192.27559 30.685939,-17.71653 30.68594,17.71653 -30.68594,17.71654 z"
       id="path5743"
       inkscape:connector-curvature="0"
       sodipodi:nodetypes="ccccc" />
    <path
       style="fill:#aa0000;stroke:none;display:inline"
       d="m 138.08673,85.976378 -21.48016,12.401575 30.68594,17.716537 21.48016,-12.40158 z"
       id="path5721"
       inkscape:connector-curvature="0"
       sodipodi:nodetypes="ccccc" />
    <path
       style="opacity:0.22222222;fill:#000000;fill-opacity:1;stroke:none;display:inline;filter:url(#filter4299)"
       d="m 233.21314,137 -9.20578,-1.41732 0,28.34645 -21.48016,-12.40157 -6.13719,7.08661 36.82313,21.25985 z"
       id="path4103"
       inkscape:connector-curvature="0"
       sodipodi:nodetypes="ccccccc"
       clip-path="url(#clipPath4215)" />
  </g>
  <g
     inkscape:label="border"
     inkscape:groupmode="layer"
     id="layer1"
     transform="translate(0,-780.36218)"
     style="display:inline" />
  <g
     inkscape:groupmode="layer"
     id="layer4"
     inkscape:label="text">
    <path
       transform="translate(0,-780.36218)"
       style="fill:#2f8ed0;fill-opacity:1;fill-rule:nonzero;stroke:none;display:inline;filter:url(#filter3791)"
       d="m 427.25,793.58093 a 29.988904,29.988904 0 0 0 -30.84375,29.96875 29.988904,29.988904 0 0 0 59.96875,0 29.988904,29.988904 0 0 0 -29.125,-29.96875 z m -1.0625,12.8125 c 0.0725,-0.004 0.12856,-0.009 0.28125,0 0.0763,0.004 0.15401,0.0415 0.28125,0.0625 0.0879,0.0145 0.24955,0.026 0.375,0.0625 0.0148,0.004 0.0449,0.0494 0.0937,0.0625 0.0149,0.004 0.0624,-4e-5 0.0625,0 0.0951,0.0255 0.21925,0.0207 0.375,0.0625 0.37804,0.10147 0.92383,0.28218 1.59375,0.46875 1.33985,0.37315 3.19564,0.92832 5.3125,1.59375 4.23372,1.33087 9.49327,3.13726 13.90625,5.34375 a 2.7783081,2.7783081 0 0 1 0.15625,4.875 c -4.15904,2.44117 -7.53667,4.23518 -10.9375,5.84375 1.79075,0.82035 3.50144,1.73003 5,2.625 3.50956,2.09598 6.03125,4.09375 6.03125,4.09375 a 2.7819522,2.7819522 0 1 1 -3.4375,4.375 c 0,0 -2.24771,-1.78249 -5.4375,-3.6875 -3.18979,-1.90501 -7.33746,-3.85859 -10.46875,-4.25 a 2.7783081,2.7783081 0 0 1 -0.5625,-5.375 c 4.33936,-1.5826 7.87911,-3.38154 11.84375,-5.5625 -2.68022,-1.0528 -5.35399,-2.23699 -7.78125,-3 -2.04265,-0.64211 -3.82899,-1.17031 -5.125,-1.53125 -0.648,-0.18047 -1.16217,-0.30718 -1.53125,-0.40625 -0.32672,0.0815 -0.74936,0.21938 -1.3125,0.375 -1.26594,0.34983 -3.03791,0.84844 -5.0625,1.5 -2.4251,0.78045 -5.11991,1.98477 -7.8125,3.0625 4.07103,2.27946 7.74137,4.18934 11.875,5.5 a 2.7783081,2.7783081 0 0 1 -0.375,5.34375 c -7.49397,1.29208 -16.1562,8.03125 -16.1562,8.03125 a 2.779406,2.779406 0 1 1 -3.46875,-4.34375 c 0,0 4.72753,-3.92129 11.0625,-6.71875 -3.37961,-1.60713 -6.74777,-3.45793 -10.8125,-5.84375 a 2.7783081,2.7783081 0 0 1 0.15625,-4.90625 c 4.39538,-2.19769 9.6062,-4.08382 13.8125,-5.4375 2.10315,-0.67684 3.96641,-1.19052 5.3125,-1.5625 0.67304,-0.18599 1.18187,-0.33697 1.59375,-0.4375 0.20594,-0.0503 0.39724,-0.0914 0.5625,-0.125 0.0826,-0.0168 0.18497,-0.0133 0.3125,-0.0312 0.0638,-0.009 0.13626,-0.055 0.28125,-0.0625 z"
       id="path3205"
       inkscape:connector-curvature="0" />
    <text
       xml:space="preserve"
       style="font-size:23.36211014px;font-style:normal;font-variant:normal;font-weight:500;font-stretch:normal;line-height:125%;letter-spacing:0px;word-spacing:0px;fill:#ffffff;fill-opacity:1;stroke:none;display:inline;filter:url(#filter3791);font-family:UnPilgi;-inkscape-font-specification:UnPilgi"
       x="401.98581"
       y="873.42517"
       id="text3046"
       sodipodi:linespacing="125%"
       transform="matrix(1.1966389,0,0,1.1966389,-85.865147,-948.17454)"><tspan
         sodipodi:role="line"
         id="tspan3048"
         x="401.98581"
         y="873.42517"
         style="font-style:normal;font-variant:normal;font-weight:normal;font-stretch:normal;fill:#2f8ed0;fill-opacity:1;font-family:UnPilgi;-inkscape-font-specification:UnPilgi">2014</tspan></text>
    <text
       xml:space="preserve"
       style="font-size:17.02639771px;font-style:normal;font-variant:normal;font-weight:normal;font-stretch:normal;text-align:start;line-height:125%;letter-spacing:0px;word-spacing:0px;text-anchor:start;fill:#2f8ed0;fill-opacity:1;stroke:none;display:inline;filter:url(#filter3791);font-family:UnPilgi;-inkscape-font-specification:UnPilgi"
       x="300.79041"
       y="967.36218"
       id="text3818"
       sodipodi:linespacing="125%"
       transform="matrix(1.299045,-0.75000049,0,1.5,-99.223847,-1015.4582)"><tspan
         sodipodi:role="line"
         x="300.79041"
         y="967.36218"
         style="font-size:38.91748047px;font-style:normal;font-variant:normal;font-weight:normal;font-stretch:normal;text-align:start;line-height:125%;letter-spacing:-3px;word-spacing:-10px;writing-mode:lr-tb;text-anchor:start;fill:#2f8ed0;fill-opacity:1;font-family:UnPilgi;-inkscape-font-specification:UnPilgi"
         id="tspan3834">Slots</tspan></text>
  </g>
</svg>
