<?xml version="1.0" encoding="UTF-8" standalone="no"?>
<!-- Created with Inkscape (http://www.inkscape.org/) -->

<svg
   xmlns:dc="http://purl.org/dc/elements/1.1/"
   xmlns:cc="http://creativecommons.org/ns#"
   xmlns:rdf="http://www.w3.org/1999/02/22-rdf-syntax-ns#"
   xmlns:svg="http://www.w3.org/2000/svg"
   xmlns="http://www.w3.org/2000/svg"
   xmlns:xlink="http://www.w3.org/1999/xlink"
   xmlns:sodipodi="http://sodipodi.sourceforge.net/DTD/sodipodi-0.dtd"
   xmlns:inkscape="http://www.inkscape.org/namespaces/inkscape"
   width="150"
   height="150"
   id="svg2"
   version="1.1"
   inkscape:version="0.48.5 r10040"
   sodipodi:docname="active-off.svg">
  <defs
     id="defs4">
    <linearGradient
       id="linearGradient3015">
      <stop
         id="stop3017"
         offset="0"
         style="stop-color:#2e3436;stop-opacity:1" />
      <stop
         id="stop3019"
         offset="1"
         style="stop-color:#d3d7cf;stop-opacity:1" />
    </linearGradient>
    <linearGradient
       inkscape:collect="always"
       id="linearGradient2997">
      <stop
         style="stop-color:#000000;stop-opacity:1"
         offset="0"
         id="stop2999" />
      <stop
         style="stop-color:#555753;stop-opacity:1"
         offset="1"
         id="stop3001" />
    </linearGradient>
    <linearGradient
       id="linearGradient2989">
      <stop
         style="stop-color:#2e3436;stop-opacity:1;"
         offset="0"
         id="stop2991" />
      <stop
         style="stop-color:#babdb6;stop-opacity:1"
         offset="1"
         id="stop2993" />
    </linearGradient>
    <linearGradient
       inkscape:collect="always"
       xlink:href="#linearGradient2997"
       id="linearGradient3011"
       gradientUnits="userSpaceOnUse"
       x1="70.30687"
       y1="139.49265"
       x2="70.30687"
       y2="8.2556648" />
    <radialGradient
       inkscape:collect="always"
       xlink:href="#linearGradient3015"
       id="radialGradient3013"
       cx="271.06332"
       cy="22.055609"
       fx="271.06332"
       fy="22.055609"
       r="65"
       gradientUnits="userSpaceOnUse"
       gradientTransform="matrix(1.1288495,-1.4260089,1.201119,0.95084122,-286.72822,478.82862)" />
  </defs>
  <sodipodi:namedview
     id="base"
     pagecolor="#ffffff"
     bordercolor="#666666"
     borderopacity="1.0"
     inkscape:pageopacity="0.0"
     inkscape:pageshadow="2"
     inkscape:zoom="2.8284271"
     inkscape:cx="109.43472"
     inkscape:cy="75.843178"
     inkscape:document-units="px"
     inkscape:current-layer="layer1"
     showgrid="false"
     inkscape:window-width="1366"
     inkscape:window-height="721"
     inkscape:window-x="-2"
     inkscape:window-y="-3"
     inkscape:window-maximized="1"
     showguides="true"
     inkscape:guide-bbox="true" />
  <metadata
     id="metadata7">
    <rdf:RDF>
      <cc:Work
         rdf:about="">
        <dc:format>image/svg+xml</dc:format>
        <dc:type
           rdf:resource="http://purl.org/dc/dcmitype/StillImage" />
        <dc:title></dc:title>
      </cc:Work>
    </rdf:RDF>
  </metadata>
  <g
     inkscape:label="layer"
     inkscape:groupmode="layer"
     id="layer1"
     transform="translate(0,-902.36218)">
    <g
       id="g3116"
       transform="translate(0,-3.76e-5)">
      <path
         transform="matrix(1.1538462,0,0,1.1538462,-5.769231,891.9776)"
         d="m 135,74 c 0,35.89851 -29.10149,65 -65,65 C 34.101491,139 5,109.89851 5,74 5,38.101491 34.101491,9 70,9 c 35.89851,0 65,29.101491 65,65 z"
         sodipodi:ry="65"
         sodipodi:rx="65"
         sodipodi:cy="74"
         sodipodi:cx="70"
         id="path2985"
         style="fill:url(#radialGradient3013);fill-opacity:1;stroke:none"
         sodipodi:type="arc" />
      <path
         sodipodi:type="arc"
         style="fill:url(#linearGradient3011);fill-opacity:1;stroke:none"
         id="path2987"
         sodipodi:cx="70"
         sodipodi:cy="74"
         sodipodi:rx="65"
         sodipodi:ry="65"
         d="m 135,74 c 0,35.89851 -29.10149,65 -65,65 C 34.101491,139 5,109.89851 5,74 5,38.101491 34.101491,9 70,9 c 35.89851,0 65,29.101491 65,65 z"
         transform="translate(5,903.36222)" />
    </g>
    <rect
       ry="2"
       rx="2"
       y="930.36218"
       x="60"
       height="6"
       width="30"
       id="status-light"
       style="fill:#2e3436;fill-opacity:1;stroke:none"
       inkscape:label="#status-light" />
    <g
       id="g3120">
      <path
         style="font-size:40px;font-style:normal;font-variant:normal;font-weight:bold;font-stretch:normal;text-align:center;line-height:125%;letter-spacing:0px;word-spacing:0px;text-anchor:middle;fill:#eeeeec;fill-opacity:1;stroke:none;font-family:Monospace;-inkscape-font-specification:Monospace Bold"
         d="m 64.4375,954.36218 c -1.453916,1e-5 -2.565899,0.55964 -3.3125,1.65625 -0.740992,1.09663 -1.093751,2.70087 -1.09375,4.84375 -10e-7,2.1373 0.352758,3.74713 1.09375,4.84375 0.746601,1.09662 1.858584,1.65625 3.3125,1.65625 1.459519,0 2.571502,-0.55963 3.3125,-1.65625 0.746593,-1.09662 1.124991,-2.70645 1.125,-4.84375 -9e-6,-2.14288 -0.378407,-3.74712 -1.125,-4.84375 -0.740998,-1.09661 -1.852981,-1.65624 -3.3125,-1.65625 z m 20.75,0 c -1.453914,1e-5 -2.565897,0.55964 -3.3125,1.65625 -0.74099,1.09663 -1.09375,2.70087 -1.09375,4.84375 0,2.1373 0.35276,3.74713 1.09375,4.84375 0.746603,1.09662 1.858586,1.65625 3.3125,1.65625 1.459523,0 2.571505,-0.55963 3.3125,-1.65625 0.746595,-1.09662 1.093741,-2.70645 1.09375,-4.84375 -9e-6,-2.14288 -0.347155,-3.74712 -1.09375,-4.84375 -0.740995,-1.09661 -1.852977,-1.65624 -3.3125,-1.65625 z M 50,954.58093 l 0,12.53125 2.46875,0 0,-4.9375 0.8125,0 c 0.600646,0 1.119023,0.4607 1.5625,1.40625 0.07297,0.15666 0.142585,0.28548 0.1875,0.375 l 1.5,3.15625 2.71875,0 -2.25,-4.5 c -0.263846,-0.52593 -0.50226,-0.88345 -0.6875,-1.0625 -0.179641,-0.18463 -0.37801,-0.29339 -0.625,-0.34375 0.791505,-0.1007 1.391474,-0.3971 1.8125,-0.90625 0.421008,-0.50914 0.624991,-1.20086 0.625,-2.0625 -9e-6,-1.28684 -0.3552,-2.21055 -1.0625,-2.78125 -0.701703,-0.57068 -1.85205,-0.87499 -3.46875,-0.875 l -3.59375,0 z m 20.6875,0 0,12.53125 4.03125,0 c 1.644768,0 2.832728,-0.26978 3.5625,-0.8125 0.729755,-0.54271 1.093741,-1.41648 1.09375,-2.625 -9e-6,-0.98472 -0.23038,-1.73293 -0.71875,-2.28125 -0.482779,-0.5483 -1.196336,-0.87363 -2.15625,-0.96875 0.802735,-0.0727 1.397084,-0.3593 1.8125,-0.8125 0.415394,-0.45319 0.624991,-1.06931 0.625,-1.875 -9e-6,-1.05185 -0.355202,-1.84906 -1.0625,-2.375 -0.701702,-0.53151 -1.75848,-0.78124 -3.15625,-0.78125 l -4.03125,0 z m 20.4375,0 0,2.1875 3.1875,0 0,10.34375 2.5,0 0,-10.34375 3.1875,0 0,-2.1875 -8.875,0 z m -18.03125,1.96875 1.625,0 c 0.617487,1e-5 1.074295,0.10877 1.34375,0.34375 0.27506,0.2294 0.406246,0.61027 0.40625,1.125 -4e-6,0.51475 -0.136803,0.86996 -0.40625,1.09375 -0.263842,0.22381 -0.715037,0.34376 -1.34375,0.34375 l -1.625,0 0,-2.90625 z m -8.65625,0.0312 c 0.63994,1e-5 1.114339,0.35426 1.40625,1.03125 0.291899,0.67141 0.437493,1.74495 0.4375,3.25 -7e-6,1.49947 -0.145601,2.60426 -0.4375,3.28125 -0.291911,0.6714 -0.76631,1 -1.40625,1 -0.634337,0 -1.083099,-0.3286 -1.375,-1 -0.291909,-0.67699 -0.437503,-1.78178 -0.4375,-3.28125 -3e-6,-1.50505 0.145591,-2.57859 0.4375,-3.25 0.291901,-0.67699 0.740663,-1.03124 1.375,-1.03125 z m 20.75,0 c 0.639944,1e-5 1.114338,0.35426 1.40625,1.03125 0.2919,0.67141 0.437491,1.74495 0.4375,3.25 -9e-6,1.49947 -0.1456,2.60426 -0.4375,3.28125 -0.291912,0.6714 -0.766306,1 -1.40625,1 -0.634335,0 -1.0831,-0.3286 -1.375,-1 -0.291908,-0.67699 -0.4375,-1.78178 -0.4375,-3.28125 0,-1.50505 0.145592,-2.57859 0.4375,-3.25 0.2919,-0.67699 0.740665,-1.03124 1.375,-1.03125 z m -32.71875,0.0937 1.1875,0 c 0.684849,1e-5 1.176839,0.11204 1.46875,0.375 0.291899,0.26297 0.437494,0.70265 0.4375,1.3125 -6e-6,0.60986 -0.139988,1.0752 -0.4375,1.34375 -0.291911,0.26297 -0.789514,0.37501 -1.46875,0.375 l -1.1875,0 0,-3.40625 z m 20.625,4.75 1.625,0 c 0.763439,1e-5 1.325041,0.14097 1.65625,0.4375 0.331192,0.29654 0.499991,0.79176 0.5,1.46875 -9e-6,0.66581 -0.180034,1.13769 -0.5,1.40625 -0.314365,0.26856 -0.864741,0.40625 -1.65625,0.40625 l -1.625,0 0,-3.71875 z"
         id="path3075"
         inkscape:connector-curvature="0" />
      <path
         id="path3086"
         transform="translate(0,902.36218)"
         d="M 49.90625 79 C 48.37814 79.00001 47.187623 79.38462 46.3125 80.15625 C 45.437372 80.9279 44.999999 81.99339 45 83.34375 C 44.999999 84.39479 45.280691 85.21847 45.8125 85.84375 C 46.344305 86.4624 47.342569 87.05958 48.84375 87.625 L 50.3125 88.1875 C 50.824105 88.38041 51.199473 88.62951 51.46875 88.96875 C 51.738011 89.30136 51.874992 89.71057 51.875 90.15625 C 51.874992 90.74829 51.685146 91.19865 51.28125 91.53125 C 50.877338 91.8572 50.296254 92.03126 49.5625 92.03125 C 48.835467 92.03126 48.122218 91.89774 47.375 91.625 C 46.634505 91.35227 45.856844 90.93378 45.0625 90.375 L 45.0625 93.40625 C 45.762599 93.75216 46.471525 94.01455 47.21875 94.1875 C 47.972701 94.36711 48.721522 94.46875 49.46875 94.46875 C 51.286312 94.46875 52.667169 94.08213 53.5625 93.34375 C 54.464542 92.59872 54.90624 91.47212 54.90625 89.96875 C 54.90624 88.86452 54.634687 87.94383 54.0625 87.21875 C 53.490292 86.49368 52.586704 85.93905 51.375 85.5 L 50.09375 85 C 49.205155 84.67406 48.626478 84.39109 48.34375 84.125 C 48.067744 83.85228 47.906246 83.50619 47.90625 83.09375 C 47.906246 82.56159 48.116286 82.16105 48.5 81.875 C 48.883704 81.58898 49.435948 81.43752 50.15625 81.4375 C 50.80249 81.43752 51.434032 81.54844 52.09375 81.78125 C 52.753452 82.01408 53.422976 82.36683 54.0625 82.8125 L 54.0625 79.9375 C 53.382585 79.63152 52.69336 79.40301 52 79.25 C 51.306623 79.09033 50.599612 79.00001 49.90625 79 z M 57.03125 79.28125 L 57.03125 81.84375 L 60.875 81.84375 L 60.875 94.15625 L 63.84375 94.15625 L 63.84375 81.84375 L 67.6875 81.84375 L 67.6875 79.28125 L 57.03125 79.28125 z M 72.96875 79.28125 L 68.90625 94.15625 L 71.875 94.15625 L 72.8125 90.5 L 76.78125 90.5 L 77.71875 94.15625 L 80.6875 94.15625 L 76.625 79.28125 L 72.96875 79.28125 z M 82.375 79.28125 L 82.375 94.15625 L 85.34375 94.15625 L 85.34375 88.28125 L 86.28125 88.28125 C 87.001542 88.28125 87.624435 88.84455 88.15625 89.96875 C 88.243757 90.15501 88.32114 90.29982 88.375 90.40625 L 90.1875 94.15625 L 93.46875 94.15625 L 90.75 88.8125 C 90.433598 88.18721 90.159639 87.77537 89.9375 87.5625 C 89.722078 87.34299 89.452438 87.1849 89.15625 87.125 C 90.105417 87.00527 90.838861 86.6366 91.34375 86.03125 C 91.848624 85.42593 92.09374 84.61818 92.09375 83.59375 C 92.09374 82.06379 91.691936 80.95978 90.84375 80.28125 C 90.002274 79.60276 88.594986 79.28126 86.65625 79.28125 L 82.375 79.28125 z M 94.375 79.28125 L 94.375 81.84375 L 98.1875 81.84375 L 98.1875 94.15625 L 101.1875 94.15625 L 101.1875 81.84375 L 105 81.84375 L 105 79.28125 L 94.375 79.28125 z M 85.34375 81.75 L 86.75 81.75 C 87.571266 81.75002 88.149941 81.90611 88.5 82.21875 C 88.850044 82.5314 89.031239 83.05618 89.03125 83.78125 C 89.031239 84.50633 88.856775 85.02446 88.5 85.34375 C 88.149941 85.65641 87.564535 85.81251 86.75 85.8125 L 85.34375 85.8125 L 85.34375 81.75 z M 74.8125 81.96875 L 76.21875 88.0625 L 73.40625 88.0625 L 74.8125 81.96875 z M 56.125 104.53125 C 54.59689 104.53125 53.406373 104.9158 52.53125 105.6875 C 51.656122 106.4591 51.218749 107.5246 51.21875 108.875 C 51.218749 109.926 51.499441 110.78095 52.03125 111.40625 C 52.563055 112.02485 53.561319 112.622 55.0625 113.1875 L 56.53125 113.71875 C 57.042855 113.91165 57.418223 114.19205 57.6875 114.53125 C 57.956762 114.86385 58.093742 115.2419 58.09375 115.6875 C 58.093742 116.2796 57.903896 116.7299 57.5 117.0625 C 57.096088 117.3884 56.515004 117.5625 55.78125 117.5625 C 55.054217 117.5625 54.340969 117.42905 53.59375 117.15625 C 52.853255 116.88355 52.075593 116.46495 51.28125 115.90625 L 51.28125 118.9375 C 51.981348 119.2834 52.690275 119.54575 53.4375 119.71875 C 54.191452 119.89815 54.971522 120 55.71875 120 C 57.536312 120 58.88592 119.64465 59.78125 118.90625 C 60.683292 118.16125 61.12499 117.03465 61.125 115.53125 C 61.12499 114.42705 60.853437 113.50635 60.28125 112.78125 C 59.709042 112.05625 58.805455 111.47025 57.59375 111.03125 L 56.3125 110.5625 C 55.423905 110.2366 54.845228 109.92235 54.5625 109.65625 C 54.286494 109.38345 54.124996 109.0375 54.125 108.625 C 54.124996 108.0929 54.335037 107.69235 54.71875 107.40625 C 55.102454 107.12025 55.654698 106.96875 56.375 106.96875 C 57.02124 106.96875 57.684033 107.0797 58.34375 107.3125 C 59.003452 107.5453 59.641726 107.89805 60.28125 108.34375 L 60.28125 105.46875 C 59.601335 105.16275 58.91211 104.93425 58.21875 104.78125 C 57.525373 104.62175 56.818362 104.53125 56.125 104.53125 z M 81.03125 104.53125 C 79.287722 104.53125 77.957816 105.1962 77.0625 106.5 C 76.173905 107.8038 75.71875 109.73355 75.71875 112.28125 C 75.71875 114.82235 76.173905 116.72745 77.0625 118.03125 C 77.957816 119.33505 79.287722 120 81.03125 120 C 82.781494 120 84.080155 119.33505 84.96875 118.03125 C 85.864061 116.72745 86.31249 114.82235 86.3125 112.28125 C 86.31249 109.73355 85.864061 107.8038 84.96875 106.5 C 84.080155 105.1962 82.781494 104.53125 81.03125 104.53125 z M 63.28125 104.8125 L 63.28125 107.375 L 67.09375 107.375 L 67.09375 119.71875 L 70.0625 119.71875 L 70.0625 107.375 L 73.90625 107.375 L 73.90625 104.8125 L 63.28125 104.8125 z M 88.875 104.8125 L 88.875 119.71875 L 91.84375 119.71875 L 91.84375 114.125 L 92.96875 114.125 C 95.048854 114.125 96.528706 113.76295 97.4375 113.03125 C 98.353004 112.29945 98.812489 111.11185 98.8125 109.46875 C 98.812489 107.82565 98.353004 106.63795 97.4375 105.90625 C 96.528706 105.17455 95.048854 104.8125 92.96875 104.8125 L 88.875 104.8125 z M 81.03125 107.1875 C 81.798661 107.1875 82.33744 107.60135 82.6875 108.40625 C 83.037543 109.20445 83.21874 110.49185 83.21875 112.28125 C 83.21874 114.06405 83.037543 115.35135 82.6875 116.15625 C 82.33744 116.95455 81.798661 117.34375 81.03125 117.34375 C 80.270555 117.34375 79.693794 116.95455 79.34375 116.15625 C 78.993696 115.35135 78.8125 114.06405 78.8125 112.28125 C 78.8125 110.49185 78.993696 109.20445 79.34375 108.40625 C 79.693794 107.60135 80.270555 107.1875 81.03125 107.1875 z M 91.84375 107.28125 L 93.0625 107.28125 C 94.038597 107.28125 94.734553 107.45535 95.125 107.78125 C 95.522163 108.10725 95.718745 108.66385 95.71875 109.46875 C 95.718745 110.27365 95.522163 110.83025 95.125 111.15625 C 94.734553 111.48215 94.038597 111.65625 93.0625 111.65625 L 91.84375 111.65625 L 91.84375 107.28125 z "
         style="font-size:40px;font-style:normal;font-variant:normal;font-weight:bold;font-stretch:normal;text-align:center;line-height:125%;letter-spacing:0px;word-spacing:0px;text-anchor:middle;fill:#ffffff;fill-opacity:1;stroke:none;font-family:Monospace;-inkscape-font-specification:Monospace Bold" />
    </g>
  </g>
</svg>
